<svg width="106" height="137" viewBox="0 0 106 137" fill="none" xmlns="http://www.w3.org/2000/svg">
<path d="M73.1323 60.0258C88.2523 63.0498 85.9123 76.9514 83.9323 81.8114L56.9323 128.791C46.1323 144.775 28.4478 130.951 28.4478 123.931L28.4478 77.4914C28.4478 68.3113 30.9678 61.8258 36.0078 60.0258H73.1323Z" fill="#007BFF" fill-opacity="0.35"/>
<path d="M12.2476 89.3711C-2.87244 86.3471 -0.532422 72.4455 1.44758 67.5855L28.4476 20.6055C39.2476 4.62145 56.9321 18.4455 56.9321 25.4654L56.9321 71.9055C56.9321 81.0855 54.4121 87.5711 49.3721 89.3711H12.2476Z" fill="#007BFF" fill-opacity="0.35"/>
<path d="M93.533 46.8254C108.653 49.8493 106.313 63.7509 104.333 68.6109L77.3329 115.591C66.5329 131.575 48.8484 117.751 48.8484 110.731L48.8484 64.2909C48.8484 55.1109 51.3684 48.6254 56.4084 46.8254H93.533Z" fill="#0056B3"/>
<path d="M32.6482 76.171C17.5282 73.147 19.8682 59.2454 21.8482 54.3854L48.8483 7.40538C59.6483 -8.57862 77.3327 5.24541 77.3327 12.2654L77.3327 58.7054C77.3327 67.8855 74.8127 74.371 69.7727 76.171H32.6482Z" fill="#0056B3"/>
</svg>
