<svg width="208" height="182" viewBox="0 0 208 182" fill="none" xmlns="http://www.w3.org/2000/svg">
<g filter="url(#filter0_d_110_263)">
<path d="M98.7517 87.5778C98.7517 85.6202 99.4688 83.7427 100.745 82.3584C102.022 80.9741 103.753 80.1965 105.558 80.1965C107.363 80.1965 109.094 80.9741 110.371 82.3584C111.647 83.7427 112.364 85.6202 112.364 87.5778C112.364 89.5355 111.647 91.4129 110.371 92.7972C109.094 94.1815 107.363 94.9591 105.558 94.9591C103.753 94.9591 102.022 94.1815 100.745 92.7972C99.4688 91.4129 98.7517 89.5355 98.7517 87.5778Z" fill="#007BFF"/>
<path d="M50.7985 76.6708C59.0475 64.3942 77.8869 41.8132 105.558 41.8132C133.229 41.8132 152.068 64.3942 160.317 76.6708L160.443 76.8539C161.847 78.9502 162.991 80.6509 163.699 83.5975C163.998 84.8494 164.091 86.3374 164.091 87.5775C164.091 88.8176 163.998 90.3056 163.699 91.5575C162.991 94.51 161.847 96.2048 160.443 98.3011L160.317 98.4842C152.068 110.761 133.229 133.342 105.558 133.342C77.8869 133.342 59.0475 110.761 50.7985 98.4842L50.6732 98.3011C49.2684 96.2048 48.125 94.5041 47.4172 91.5575C47.1384 90.253 47.0067 88.9165 47.0251 87.5775C47.0251 86.3374 47.1177 84.8494 47.4172 83.5975C48.125 80.645 49.2684 78.9502 50.6732 76.8539L50.7985 76.6708ZM90.5844 87.5775C90.5844 91.8843 92.1619 96.0148 94.97 99.0602C97.7781 102.106 101.587 103.816 105.558 103.816C109.529 103.816 113.338 102.106 116.146 99.0602C118.954 96.0148 120.531 91.8843 120.531 87.5775C120.531 83.2707 118.954 79.1402 116.146 76.0948C113.338 73.0494 109.529 71.3386 105.558 71.3386C101.587 71.3386 97.7781 73.0494 94.97 76.0948C92.1619 79.1402 90.5844 83.2707 90.5844 87.5775ZM98.7517 87.5775C98.7517 85.6198 99.4688 83.7424 100.745 82.3581C102.022 80.9738 103.753 80.1962 105.558 80.1962C107.363 80.1962 109.094 80.9738 110.371 82.3581C111.647 83.7424 112.364 85.6198 112.364 87.5775C112.364 89.5351 111.647 91.4126 110.371 92.7969C109.094 94.1812 107.363 94.9588 105.558 94.9588C103.753 94.9588 102.022 94.1812 100.745 92.7969C99.4688 91.4126 98.7517 89.5351 98.7517 87.5775Z" fill="#007BFF"/>
</g>
<defs>
<filter id="filter0_d_110_263" x="0.275908" y="0.00382185" width="207.27" height="181.732" filterUnits="userSpaceOnUse" color-interpolation-filters="sRGB">
<feFlood flood-opacity="0" result="BackgroundImageFix"/>
<feColorMatrix in="SourceAlpha" type="matrix" values="0 0 0 0 0 0 0 0 0 0 0 0 0 0 0 0 0 0 127 0" result="hardAlpha"/>
<feOffset dx="-1.64604" dy="3.29208"/>
<feGaussianBlur stdDeviation="22.5507"/>
<feComposite in2="hardAlpha" operator="out"/>
<feColorMatrix type="matrix" values="0 0 0 0 0 0 0 0 0 0.482353 0 0 0 0 1 0 0 0 1 0"/>
<feBlend mode="normal" in2="BackgroundImageFix" result="effect1_dropShadow_110_263"/>
<feBlend mode="normal" in="SourceGraphic" in2="effect1_dropShadow_110_263" result="shape"/>
</filter>
</defs>
</svg>
