<svg width="162" height="155" viewBox="0 0 162 155" fill="none" xmlns="http://www.w3.org/2000/svg">
<g filter="url(#filter0_d_110_268)">
<path d="M45.0424 77.7359V47.3715H34.0329C31.113 47.3715 28.3127 48.5712 26.248 50.7066C24.1834 52.842 23.0234 55.7382 23.0234 58.7582V127.078C23.0289 127.783 23.2241 128.472 23.587 129.069C23.95 129.666 24.4665 130.146 25.0785 130.456C25.6682 130.733 26.3183 130.844 26.9629 130.778C27.6075 130.711 28.2235 130.469 28.7484 130.077L47.6479 115.691H96.9703C98.3612 115.734 99.7458 115.481 101.038 114.947C102.331 114.414 103.503 113.612 104.484 112.591C105.464 111.569 106.232 110.351 106.738 109.01C107.245 107.67 107.48 106.236 107.429 104.798V100.509H67.0613C61.2215 100.509 55.6209 98.1099 51.4916 93.8391C47.3622 89.5682 45.0424 83.7758 45.0424 77.7359Z" fill="#007BFF"/>
<path d="M129.448 20.8018H67.0612C64.1413 20.8018 61.341 22.0014 59.2764 24.1368C57.2117 26.2722 56.0518 29.1685 56.0518 32.1884V77.735C56.0518 80.7549 57.2117 83.6511 59.2764 85.7866C61.341 87.922 64.1413 89.1216 67.0612 89.1216H116.787L134.329 103.203C134.851 103.602 135.465 103.851 136.109 103.924C136.754 103.997 137.406 103.893 137.999 103.621C138.623 103.313 139.151 102.829 139.521 102.225C139.891 101.62 140.089 100.92 140.091 100.205V32.1884C140.092 29.2331 138.983 26.3929 136.997 24.2681C135.011 22.1433 132.304 20.9003 129.448 20.8018Z" fill="#007BFF"/>
</g>
<defs>
<filter id="filter0_d_110_268" x="0.221595" y="0.408561" width="161.065" height="153.993" filterUnits="userSpaceOnUse" color-interpolation-filters="sRGB">
<feFlood flood-opacity="0" result="BackgroundImageFix"/>
<feColorMatrix in="SourceAlpha" type="matrix" values="0 0 0 0 0 0 0 0 0 0 0 0 0 0 0 0 0 0 127 0" result="hardAlpha"/>
<feOffset dx="-0.802882" dy="1.60576"/>
<feGaussianBlur stdDeviation="10.9995"/>
<feComposite in2="hardAlpha" operator="out"/>
<feColorMatrix type="matrix" values="0 0 0 0 0 0 0 0 0 0.482353 0 0 0 0 1 0 0 0 1 0"/>
<feBlend mode="normal" in2="BackgroundImageFix" result="effect1_dropShadow_110_268"/>
<feBlend mode="normal" in="SourceGraphic" in2="effect1_dropShadow_110_268" result="shape"/>
</filter>
</defs>
</svg>
