<svg width="162" height="161" viewBox="0 0 162 161" fill="none" xmlns="http://www.w3.org/2000/svg">
<g filter="url(#filter0_d_110_273)">
<path d="M81.5542 93.8482C78.5559 93.8509 75.6244 92.9738 73.1317 91.3282C70.639 89.6826 68.6974 87.3428 67.5534 84.6056C66.4093 81.8684 66.1143 78.8573 66.7059 75.9542C67.2975 73.0512 68.7489 70.3872 70.8759 68.3002C71.2771 67.9076 71.7527 67.597 72.2754 67.386C72.7982 67.1749 73.3579 67.0677 73.9226 67.0703C74.4873 67.0729 75.046 67.1854 75.5667 67.4012C76.0874 67.6171 76.56 67.9321 76.9574 68.3284C77.3548 68.7246 77.6694 69.1943 77.883 69.7105C78.0967 70.2268 78.2053 70.7796 78.2026 71.3374C78.2 71.8951 78.0861 72.4469 77.8676 72.9611C77.649 73.4754 77.33 73.9422 76.9289 74.3347C76.3128 74.9296 75.8237 75.6402 75.4902 76.4248C75.1568 77.2094 74.9858 78.052 74.9873 78.9029C74.9114 80.2424 75.2616 81.5717 75.989 82.7048C76.7163 83.8378 77.7843 84.7178 79.0433 85.2214C80.3023 85.725 81.6893 85.827 83.0099 85.5132C84.3306 85.1993 85.5187 84.4853 86.4079 83.4711C87.2207 82.6755 88.3187 82.2292 89.463 82.2292C90.6072 82.2292 91.7052 82.6755 92.518 83.4711C93.31 84.2808 93.7526 85.3626 93.7526 86.4884C93.7526 87.6142 93.31 88.696 92.518 89.5056C91.0748 90.9134 89.3618 92.0226 87.4792 92.7682C85.5966 93.5139 83.5823 93.8811 81.5542 93.8482Z" fill="#007BFF"/>
<path d="M140.085 78.9032C140.085 94.2347 133.918 108.938 122.941 119.779C111.965 130.62 97.0772 136.711 81.554 136.711C66.0307 136.711 51.1432 130.62 40.1666 119.779C29.19 108.938 23.0234 94.2347 23.0234 78.9032C23.0234 63.5717 29.19 48.8681 40.1666 38.0271C51.1432 27.1861 66.0307 21.0957 81.554 21.0957C82.6898 21.0957 83.7792 21.5413 84.5823 22.3346C85.3855 23.1278 85.8367 24.2037 85.8367 25.3255V46.7566C85.8219 47.8739 85.366 48.9413 84.566 49.7314C83.766 50.5215 82.6852 50.9718 81.554 50.9864C75.9616 50.9484 70.488 52.58 65.8507 55.6674C61.1872 58.7199 57.5504 63.0756 55.4044 68.1784C53.2584 73.2813 52.7005 78.9 53.8019 84.3174C55.5932 90.7443 59.6318 96.3367 65.2011 100.102C70.7705 103.868 77.5104 105.563 84.225 104.887C90.9396 104.211 97.1946 101.208 101.88 96.4096C106.566 91.6116 109.379 85.3293 109.82 78.6776C109.812 78.12 109.918 77.5666 110.13 77.05C110.343 76.5334 110.658 76.0641 111.057 75.6698C111.456 75.2755 111.932 74.9642 112.455 74.7543C112.978 74.5444 113.538 74.4402 114.103 74.4478H135.802C136.384 74.447 136.96 74.5634 137.495 74.7899C138.03 75.0165 138.513 75.3484 138.914 75.7653C139.315 76.1823 139.625 76.6756 139.826 77.2152C140.028 77.7547 140.116 78.329 140.085 78.9032Z" fill="#007BFF"/>
<path d="M138.028 45.7974C137.879 46.8946 137.425 47.9294 136.715 48.7865L124.324 61.0247C122.562 62.7722 120.381 64.0524 117.985 64.747C116.58 65.1733 115.116 65.3825 113.645 65.3673C112.639 65.4555 111.626 65.4555 110.619 65.3673L103.024 63.901L90.0049 76.816C89.1861 77.585 88.1079 78.0271 86.9784 78.0568C85.8429 78.0558 84.7543 77.6095 83.9519 76.816C83.5479 76.4272 83.2268 75.9624 83.0075 75.449C82.7883 74.9357 82.6753 74.3841 82.6753 73.827C82.6753 73.2698 82.7883 72.7183 83.0075 72.2049C83.2268 71.6915 83.5479 71.2267 83.9519 70.8379L97.0285 57.8665L95.4867 50.422C95.026 48.0225 95.1433 45.5495 95.8294 43.2031C96.5326 40.8366 97.8288 38.6834 99.5982 36.943L111.875 24.8175C112.719 24.0596 113.773 23.5685 114.902 23.4076C115.958 23.2564 117.036 23.4338 117.985 23.9151C118.928 24.3885 119.718 25.1109 120.269 26.0018C120.827 26.9988 121.066 28.1392 120.955 29.2729L119.127 42.0188L131.976 40.2704C133.051 40.1662 134.133 40.385 135.081 40.8981C136.028 41.4113 136.797 42.195 137.286 43.1467C137.751 43.9562 138.006 44.8669 138.028 45.7974Z" fill="#007BFF"/>
</g>
<defs>
<filter id="filter0_d_110_273" x="0.221595" y="0.702506" width="161.065" height="159.613" filterUnits="userSpaceOnUse" color-interpolation-filters="sRGB">
<feFlood flood-opacity="0" result="BackgroundImageFix"/>
<feColorMatrix in="SourceAlpha" type="matrix" values="0 0 0 0 0 0 0 0 0 0 0 0 0 0 0 0 0 0 127 0" result="hardAlpha"/>
<feOffset dx="-0.802882" dy="1.60576"/>
<feGaussianBlur stdDeviation="10.9995"/>
<feComposite in2="hardAlpha" operator="out"/>
<feColorMatrix type="matrix" values="0 0 0 0 0 0 0 0 0 0.482353 0 0 0 0 1 0 0 0 1 0"/>
<feBlend mode="normal" in2="BackgroundImageFix" result="effect1_dropShadow_110_273"/>
<feBlend mode="normal" in="SourceGraphic" in2="effect1_dropShadow_110_273" result="shape"/>
</filter>
</defs>
</svg>
