<svg width="162" height="159" viewBox="0 0 162 159" fill="none" xmlns="http://www.w3.org/2000/svg">
<g filter="url(#filter0_d_110_279)">
<path d="M64.2618 40.277C67.7785 30.1833 81.9983 29.8777 86.1677 39.36L86.5206 40.2828L91.2664 53.8949C92.354 57.0166 94.1116 59.8733 96.4205 62.2722C98.7294 64.6711 101.536 66.5564 104.651 67.8011L105.927 68.2683L119.806 72.9171C130.097 76.3663 130.409 90.3129 120.747 94.4023L119.806 94.7483L105.927 99.403C102.743 100.469 99.8295 102.192 97.3825 104.457C94.9356 106.722 93.0124 109.475 91.7427 112.531L91.2664 113.776L86.5265 127.394C83.0098 137.488 68.79 137.794 64.6264 128.317L64.2618 127.394L59.5219 113.782C58.435 110.659 56.6778 107.802 54.3688 105.402C52.0598 103.002 49.2528 101.115 46.1372 99.8702L44.8669 99.403L30.9883 94.7541C20.691 91.3049 20.3793 77.3584 30.0473 73.2747L30.9883 72.9171L44.8669 68.2683C48.0498 67.2016 50.9624 65.4778 53.4083 63.2132C55.8542 60.9486 57.7765 58.1959 59.0455 55.1407L59.5219 53.8949L64.2618 40.277ZM122.44 20.3896C123.541 20.3896 124.619 20.6923 125.552 21.2632C126.486 21.8342 127.237 22.6506 127.721 23.6196L128.004 24.2944L130.062 30.2122L136.102 32.2309C137.204 32.5983 138.171 33.2785 138.879 34.1852C139.587 35.0919 140.004 36.1843 140.079 37.324C140.153 38.4638 139.881 39.5995 139.296 40.5873C138.712 41.575 137.841 42.3704 136.796 42.8726L136.102 43.1494L130.068 45.1681L128.01 51.0917C127.634 52.1728 126.94 53.1202 126.016 53.8141C125.091 54.5079 123.977 54.9169 122.815 54.9891C121.653 55.0614 120.495 54.7937 119.488 54.22C118.481 53.6463 117.671 52.7924 117.16 51.7665L116.877 51.0917L114.819 45.1739L108.779 43.1552C107.677 42.7878 106.71 42.1077 106.002 41.201C105.294 40.2943 104.877 39.2018 104.802 38.0621C104.728 36.9223 105 35.7866 105.585 34.7988C106.169 33.8111 107.04 33.0157 108.085 32.5136L108.779 32.2367L114.813 30.218L116.871 24.2944C117.268 23.1548 118.018 22.1655 119.017 21.4653C120.016 20.765 121.213 20.3889 122.44 20.3896Z" fill="#007BFF"/>
</g>
<defs>
<filter id="filter0_d_110_279" x="0.221595" y="-0.00360954" width="161.065" height="158.81" filterUnits="userSpaceOnUse" color-interpolation-filters="sRGB">
<feFlood flood-opacity="0" result="BackgroundImageFix"/>
<feColorMatrix in="SourceAlpha" type="matrix" values="0 0 0 0 0 0 0 0 0 0 0 0 0 0 0 0 0 0 127 0" result="hardAlpha"/>
<feOffset dx="-0.802882" dy="1.60576"/>
<feGaussianBlur stdDeviation="10.9995"/>
<feComposite in2="hardAlpha" operator="out"/>
<feColorMatrix type="matrix" values="0 0 0 0 0 0 0 0 0 0.482353 0 0 0 0 1 0 0 0 1 0"/>
<feBlend mode="normal" in2="BackgroundImageFix" result="effect1_dropShadow_110_279"/>
<feBlend mode="normal" in="SourceGraphic" in2="effect1_dropShadow_110_279" result="shape"/>
</filter>
</defs>
</svg>
